<?xml version="1.0"?>
<svg xmlns="http://www.w3.org/2000/svg" viewBox="0 0 64 64" width="512" height="512"><g id="flat"><path d="M51,43H25l-2-6a29.145,29.145,0,0,1,15-4,29.145,29.145,0,0,1,15,4Z" style="fill:#4f97d5"/><path d="M30,43H46V34.074a30.332,30.332,0,0,0-16,0Z" style="fill:#50b3c9"/><rect x="3" y="43" width="58" height="18" style="fill:#cdeef6"/><path d="M61,47c-3.627,0-3.373,5-7,5s-3.373-5-7-5-4.375,5-8,5-3.374-5-7-5-3.375,5-7,5-3.376-5-7-5-4.376,5-8,5-3.376-5-7-5V61H61Z" style="fill:#50b3c9"/><rect x="40.239" y="24.586" width="4.429" height="2" transform="translate(-5.505 38.111) rotate(-45.712)" style="fill:#bfbfbf"/><rect x="15" y="53" width="5" height="2" style="fill:#cdeef6"/><rect x="27" y="56" width="4" height="2" style="fill:#cdeef6"/><rect x="44" y="54" width="4" height="2" style="fill:#cdeef6"/><rect x="3" y="3" width="8" height="40" style="fill:#d3843d"/><rect x="11" y="3" width="10" height="6" style="fill:#ebb562"/><rect x="3" y="6" width="3" height="2" style="fill:#f1c056"/><rect x="3" y="10" width="3" height="2" style="fill:#f1c056"/><rect x="41" y="36" width="2" height="2" style="fill:#cdeef6"/><rect x="37" y="38" width="2" height="2" style="fill:#cdeef6"/><rect x="33" y="36" width="2" height="2" style="fill:#cdeef6"/><path d="M57.293,17.707a1,1,0,0,0,1.414,0l3-3a1,1,0,0,0,0-1.414l-4-4a1,1,0,0,0-1.414,0l-3,3a1,1,0,0,0,0,1.414L54.586,15,53,16.586l-2.293-2.293a1,1,0,0,0-1.414,0l-2,2,1.414,1.414L50,16.414,51.586,18,48,21.586l-3.293-3.293-1.414,1.414,8,8,1.414-1.414L49.414,23,53,19.414l3.293,3.293a1,1,0,0,0,1.414,0l2-2-1.414-1.414L57,20.586,54.414,18,56,16.414Z" style="fill:#ffd782"/><rect x="43.586" y="28" width="2.828" height="2" transform="translate(-7.326 40.314) rotate(-45)" style="fill:#bfbfbf"/><rect x="28" y="10.192" width="2" height="20.616" transform="translate(-5.683 12.86) rotate(-22.834)" style="fill:#bfbfbf"/><rect x="33.5" y="15.5" width="2" height="13" transform="translate(-5.808 14.962) rotate(-22.62)" style="fill:#bfbfbf"/><rect x="40" y="5" width="2" height="2" style="fill:#50b3c9"/><rect x="44" y="5" width="2" height="2" style="fill:#50b3c9"/><rect x="8" y="38" width="3" height="2" style="fill:#f1c056"/><rect x="8" y="34" width="3" height="2" style="fill:#f1c056"/></g></svg>
