<?xml version="1.0"?>
<svg xmlns="http://www.w3.org/2000/svg" viewBox="0 0 64 64" width="512" height="512"><g id="flat"><polygon points="31 9 27.333 17.083 20 19 16 26 19 41 28 45 34 53 39 61 3 61 3 3 31 3 31 9" style="fill:#d3843d"/><polygon points="49 28 40 19 43 16 55 28 49 28" style="fill:#edae3e"/><polygon points="45 44 49 44 49 40 45 40 41 40 41 52 45 52 45 44" style="fill:#ffd782"/><rect x="49" y="12" width="12" height="12" transform="translate(110 36) rotate(180)" style="fill:#ffd782"/><rect x="39" y="46" width="8" height="4" transform="translate(91 5) rotate(90)" style="fill:#edae3e"/><rect x="53" y="44" width="4" height="13" style="fill:#ffd782"/><rect x="49" y="28" width="12" height="16" transform="translate(110 72) rotate(180)" style="fill:#5ac6aa"/><rect x="39.5" y="50.5" width="4" height="7" transform="translate(95.5 12.5) rotate(90)" style="fill:#38495c"/><rect x="50" y="57" width="7" height="4" transform="translate(107 118) rotate(180)" style="fill:#38495c"/><rect x="49" y="38" width="6" height="6" style="fill:#d3843d"/><rect x="55" y="38" width="6" height="6" style="fill:#ba651e"/><circle cx="39" cy="30" r="2" style="fill:#ffd782"/><circle cx="39" cy="15" r="2" style="fill:#ffd782"/><polygon points="12 58 6 58 6 52 8 52 8 56 12 56 12 58" style="fill:#f1c056"/><rect x="6" y="48" width="2" height="2" style="fill:#f1c056"/><polygon points="37 37 35 37 35 26 30 26 30 24 37 24 37 37" style="fill:#995f5b"/><polygon points="36 19 34 19 34 7 31 7 31 5 36 5 36 19" style="fill:#995f5b"/><rect x="6" y="3" width="2" height="14" style="fill:#f1c056"/><rect x="10" y="3" width="2" height="12" style="fill:#f1c056"/><path d="M26.143,17.515,23.434,13H18V11h6a1,1,0,0,1,.857.485l3,5Z" style="fill:#f1c056"/><rect x="16.5" y="15.95" width="2" height="5.099" transform="translate(-4.073 32.032) rotate(-78.69)" style="fill:#f1c056"/><path d="M7.707,29.707,6.293,28.293l4-4a.994.994,0,0,1,.9-.273l5,1L15.8,26.98l-4.475-.895Z" style="fill:#f1c056"/><rect x="10" y="35" width="8" height="2" style="fill:#f1c056"/><rect x="14" y="31" width="3" height="2" style="fill:#f1c056"/><rect x="14.5" y="41.5" width="5" height="2" transform="matrix(0.8, -0.6, 0.6, 0.8, -22.105, 18.708)" style="fill:#f1c056"/><path d="M31.186,61.581,26.307,54.75l-4.822-2.893,1.03-1.714,5,3a1,1,0,0,1,.3.276l5,7Z" style="fill:#f1c056"/><rect x="18" y="49" width="2" height="2" style="fill:#f1c056"/><rect x="17" y="6" width="2" height="2" style="fill:#f1c056"/><rect x="21" y="6" width="2" height="2" style="fill:#f1c056"/><rect x="10" y="31" width="2" height="2" style="fill:#f1c056"/><rect x="52" y="19" width="2" height="2" style="fill:#38495c"/><rect x="49" y="12" width="12" height="4" transform="translate(110 28) rotate(180)" style="fill:#38495c"/><rect x="43" y="28" width="12" height="4" style="fill:#ffd782"/></g></svg>
