<?xml version="1.0"?>
<svg xmlns="http://www.w3.org/2000/svg" viewBox="0 0 64 64" width="512" height="512"><g id="flat"><polygon points="3 61 32 61 3 33 3 61" style="fill:#d3843d"/><rect x="26.05" y="5.05" width="9.899" height="9.899" transform="translate(2.009 24.849) rotate(-45)" style="fill:#ffd782"/><polygon points="56 23 48 23 44 27 45 34 50 38 53 35 49 32 49 27 54 27 58 30 61 27 56 23" style="fill:#ffd782"/><polygon points="36 23 27 31 24 28 33 20 36 23" style="fill:#ffd782"/><polygon points="55 16 45 16 41 12 55 12 55 16" style="fill:#ffd782"/><polygon points="54 27 56 23 61 27 58 30 54 27" style="fill:#edae3e"/><rect x="35.843" y="14.136" width="11.314" height="12.728" transform="translate(-2.341 35.349) rotate(-45)" style="fill:#f3bb59"/><rect x="38.843" y="21.379" width="11.314" height="4.243" transform="translate(-3.583 38.349) rotate(-45)" style="fill:#ba651e"/><polygon points="12 58 6 58 6 50 8 50 8 56 12 56 12 58" style="fill:#f1c056"/><rect x="14" y="56" width="2" height="2" style="fill:#f1c056"/><path d="M19.293,15.707a6.5,6.5,0,0,1-2.176-4.833,7.049,7.049,0,0,1,2.22-4.623l1.326,1.5L20,7l.666.746a5.057,5.057,0,0,0-1.55,3.2,4.608,4.608,0,0,0,1.591,3.343Z" style="fill:#bfbfbf"/><path d="M16.293,18.707a10.46,10.46,0,0,1-3.436-7.526A12.231,12.231,0,0,1,16.3,3.286l1.4,1.428L17,4l.7.713a10.355,10.355,0,0,0-2.844,6.494,8.554,8.554,0,0,0,2.85,6.086Z" style="fill:#bfbfbf"/><path d="M50.044,43.886c-.057,0-.112,0-.169,0a7.052,7.052,0,0,1-4.624-2.22l1.5-1.329a5.06,5.06,0,0,0,3.2,1.55,4.565,4.565,0,0,0,3.343-1.591l1.414,1.414A6.565,6.565,0,0,1,50.044,43.886Z" style="fill:#bfbfbf"/><path d="M50.229,48.143h-.048A12.24,12.24,0,0,1,42.286,44.7l1.427-1.4a10.351,10.351,0,0,0,6.494,2.845h.021a8.56,8.56,0,0,0,6.065-2.85l1.414,1.414A10.472,10.472,0,0,1,50.229,48.143Z" style="fill:#bfbfbf"/><polygon points="50 38 53 35 49 32 46.111 34.889 50 38" style="fill:#edae3e"/><rect x="40.379" y="12.257" width="4.243" height="8.485" transform="translate(0.781 34.885) rotate(-45)" style="fill:#5ac6aa"/><rect x="35.379" y="17.257" width="4.243" height="8.485" transform="translate(-4.219 32.814) rotate(-45)" style="fill:#5ac6aa"/><path d="M34.293,43.707l1.414-1.414-4.436-4.437-5.251,1.75-3.214-3.215,8-3-8.1-8.1-1.414,1.414,5.9,5.9-6.546,2.454h0l-1.513.567a7.027,7.027,0,0,0-1.186-1.581A7,7,0,1,0,20,39a7.074,7.074,0,0,0-.164-1.495l.912-.342,3.151,3.15-2.215.738.632,1.9,3.164-1.055,1.413,1.413-.183.729C26.476,44.013,26.239,44,26,44a6.971,6.971,0,1,0,2.651.519l.456-1.826L27.6,41.187l3.128-1.043ZM18,39a5,5,0,1,1-1.465-3.536,5.025,5.025,0,0,1,.691.883l-4.578,1.716.7,1.874,4.572-1.715A5.026,5.026,0,0,1,18,39Zm11.535,8.464A5,5,0,1,1,26,46c.073,0,.142.018.214.021L25.03,50.757l1.94.486,1.184-4.737A4.99,4.99,0,0,1,29.535,47.464Z" style="fill:#4f97d5"/><rect x="24.05" y="5.879" width="9.899" height="4.243" transform="translate(2.837 22.849) rotate(-45)" style="fill:#38495c"/></g></svg>
